<mxfile host="Electron" modified="2024-04-09T03:08:57.980Z" agent="Mozilla/5.0 (Windows NT 10.0; Win64; x64) AppleWebKit/537.36 (KHTML, like Gecko) draw.io/22.0.2 Chrome/114.0.5735.289 Electron/25.8.4 Safari/537.36" etag="HmCHSpm-c1_lbw2rcQF-" version="22.0.2" type="device">
  <diagram name="第 1 页" id="DSy4FRFNmjy-pF0nkU_c">
    <mxGraphModel dx="1548" dy="902" grid="1" gridSize="10" guides="1" tooltips="1" connect="1" arrows="1" fold="1" page="1" pageScale="1" pageWidth="827" pageHeight="1169" math="0" shadow="0">
      <root>
        <mxCell id="0" />
        <mxCell id="1" parent="0" />
        <mxCell id="batevEnSd1Nm34ywdQk7-1" value="" style="shape=image;verticalLabelPosition=bottom;labelBackgroundColor=default;verticalAlign=top;aspect=fixed;imageAspect=0;image=data:image/png,iVBORw0KGgoAAAANSUhEUgAAAioAAAFgCAMAAACixaIWAAAAAXNSR0IArs4c6QAAAARnQU1BAACxjwv8YQUAAAMAUExURf////f39+/v787FznN7e62trSEhIXNza2Nra9be1rW1tebm3oSEhNbO1kI6QikpIZylnBAZEGNaWsXFxTExMb29tRAICAAAAAAICIyMlISMjFJaWlJSUjo6OpyUnEJKQsVChIxChMUQhIwQhMW9c4y9cxneEBmcWhmcEM6c3sXvc4zvc2s6GWucpWsQGc5aSs4ZSkJjhBAQQlLee1LeMe9aUjpaGVKce1KcMe8ZUhneexneMRmcexmcMe+cUu9aGe8ZGe+cGe9ajO8ZjO+cjDoQSms6SmtjOhlrShBrGWsQSmtjEBlCShBCGe/eUu/eGe/ejO9ave8Zve+cvc6Uc6WUc2PO5mOczmPOrcVr5u/evcVrhMUp5oxr5owp5rXv5sVrtcUptYxrtYwptVJrvcXvEFIpvcWtEBlrvYzvEBkpvYytEJxrGZwpGZRrhMVK5sUI5oxK5owI5rXO5sVKtcUItYxKtYwItVJKvcXOEFIIvcWMEBlKvYzOEBkIvYyMEJxKGZwIGa2t3q2M3tbmrTEQCK3mvZxrSpwpShBjlK3mnJxKSpwIShBjc1Jr78XvQjrv5lI6lFIp78WtQjqt5hlr74zvQhkp74ytQjrvrRk6lDqtre9S785rGc4pGcWUnBDv5lIQlBCt5hDvrRkQlBCtrWPv5mOc72PvrVLvWlLvEFKtWlKtEBnvWu8Z7++M74TO5oSczoTOrVJK78XOQjrO5lI6c1II78WMQjqM5hlK74zOQhkI74yMQjrOrRk6czqMrc5KGc4IGRDO5lIQcxCM5hDOrRkQcxCMrVLOWlLOEFKMWlKMEBnOWmNjjO+974Tv5oSc74TvrUJjSnuUa8W1nK3Fpc6cte//Ou//vToQIaWUtToxEHNzWtbFrdbv74ylpUI6UnNaWnNrjAAZCNbO7xAIIa3Fxffm9/fm3nuUhNbv1u/35ube96W1tWNaa0JKWq21nM69tTopIQghIXNja3Nre+b399bFzubv9+/////393OEhPf3/+bv7wAAAPA9bjIAAAEAdFJOU////////////////////////////////////////////////////////////////////////////////////////////////////////////////////////////////////////////////////////////////////////////////////////////////////////////////////////////////////////////////////////////////////////////////////////////////////////////////////////////////////////////////////wBT9wclAAAACXBIWXMAAA7DAAAOwwHHb6hkAABRs0lEQVR4Xu19W1fbOheth2wLizi0JnJMiiP/qvOT8hf7cHhoxymDFwi3AIPg7+HMuSSHS+ku5bILO55xbN2vS0tLsixFPXr06NGjR48ePXr06NGjR48ePXr06NGjR48ePXr06NGjR48ePXr06NGjR48ePXr06NGjR48ePXr06NGjR48ePXr06NGjR48ePXr06NGjR48ePXr06NGjR48ePXr06NGjR48ePXr06NGjR48ePXr06NGjR48ePXr06NGjR48ePXp8KCgiKDr9M58PtE99PtD+6fOB9k+fD7RPfd7VrgmMrqoqhyLD0+FZV9VOiaetqiJGccBeo0DioqosjDfxrPF0cJ7gmQRv9J7iCe8VvcG7Nj54G7w3sE5hneGZP/BOb/Te3ImV3hkrvJch1rveHyS6QqIVvYdYu0RPYV3C+rFE342V3rtEh1gfJpreGevdPLOo1gVxmqYonig+c/75OU1RTFGZ7pV4KliXy/CEsUn3zlCXeKaOzs3emTxj54Mp4U68Q4/HEs7oTcHbCE96C97TazwR25l4D942987kCe0mHoh1j97mSJyPPXX01sUen4XE+0S3jLWFftMnduUdwd1N9HWafvaxfvaJ3js79rE65rk93jsrEcwh8tZ5k6dLPw/p7WxPvJ9/T9M5nj3eB1jzL4B4f2EYPXr0+BMoQ87b45mIE/ZE64GY8lyP58KN14hUZLjT45lIx5R31wPxWg33Xh3p/vpwFTNdn2bxBjB7ayTq9VJtjx493iMUZzmPzHLwq677p7cl5tGOT8V095PdA88re0XF8vrW+ub+bFsI7m6iJKU9noFXKrlYH+Nm44yvWqLDURzHJs2ybCPLcqmopGmPQC/DMuFbFKBp+LZNqft1azRfB+R8AxNwnpkobTq92SVxOL7gIVK+slGLidcBSb005aiMy5EnEgku44scgTLKVenAzF9LGB1tv1ZI7x+j1xksx8U5qkRHruBLkXxcFEXWFLWuGivDyYFuktOp1UWhE6nmvBprq61thEGoNPUkK0TQar6c81g2eh6V8paO2OS7yCjpSEWiU/t8dyfYrJLopELkxY5QWzI+vjbXeZWCdA9BOU2hi0rrxcX0lWrYVetDKq8yr6LSfCeJ1UJPkqrOXTs/P9XldX0F9hAZmeNzVey2k7rK44H4yCv9xeWulje5YEdVVdk4Us4WiVOmavI8lxd7cEi+cFLwNR0Q7/P1X+5JRcXJODUuK5o8oSsQ7DSKhuVoBMbCWJWts0JrXeFWJNDrE7EqJ0Jxr4C04NvL9cDoNeZV4qKoimxS6YVGm9098jy/mabNzCVcVGCKE7pLAzeYN1WjkzYqdUN6UJ9AQv+rppGpdKOL2FV2gfpl7aeyaCA61KFLKsfpt8F8Q6MLUQgOLCLJZjvahsUCto0ZYNepuercgDBGMW4liG2uF7sn9e7uyfS1ajjlmoc1galDe30RTFrsxQWoblSw1XtSqYstvWMtSSWT9R2oW9+YVZ1G51pPq0wIoJTVIHU1NMUmyMfpbKlu4gJeXFX7ah8WYDrAaFzMCl1VuDtylcINQACTKNuCZW2VGmfxCIhjkIbS+/Mo3t2t65PdXaFJ3bgvE3CzSybqNTDvheQ/RVyYvCpcPCkmaNeDvenCmQYdkIZNzJVIZ3QlUqhAlUlRjKvdzTlIoWzI2bLq2kCuMbYR3mOKFEbbimvNWhVtFgckwnLnx3fn0tR9l/4pLXAbgGoyrmCCidWpLfRBURxA3qmrGUglQWcG0PlA13k+yfMv269FKj3+GGaW1E7vo0coZjk4A3oGVzdldlC6/TiytZ58RWPeLpLc5aVKtoqxzVzspsX+4tTzobKyR/NiMnTalQlk5AFIJf+Sa4i+kDZ0Fm+TnsrCyzoBaTFxSU6iIqmQ3MDYyjLO911pjK4vTGQ8peRknkrb7BK/jaYnlb8ENcqqKjfaDdERmW9Ra+qpUdlYjytd2GFUGpufULSEJKMhpGTbbtRG9jvXoyU1a22+UaFzMpA/C9SiBl8ZFnswH+VfbAHy8pwGtFHlKXAmi9faeLsab9RctbhNWcVASg4iDXu6+TklibL2IKnMdXZOsaXMd16JVFrIZeuC+dkrLPnbhFjrULmpKsdfZaZEpjJaDlVE1mgL1yp1tFfEnEqJ1Bl6kbyqHfoSqbNUVzUqf1hMzB5GTIODBmrps9CnyLLWQAOOxIYeRmSfHINiyL55tTAiq1zqOvRwm55rHM/AVWI/z8JstvUna+0Uo3QRp18Bo9cK6AOgfI0RkNlLUTdxMT4oqvH4B0yyrWGcOtfoiaNQMaeMeiurzJupbYrKTu10nz3HpFpIKijXxBrKtNqkiEuUMhJKrBdvMz00xgzighMtcZprUEACfrVF0izNpkzrkEakV0sPTHQinOxiTA/GxMemnkD82XulGu7nVf4Y18Ux5ZUyH+foG9ABYRRb+/kuUonCIAX4PgvDLfCauW5UdNRmoAFTNEsxvgZHEVKJNs1Qe1KZCj85aW5EFybnlPVzcuxhWp0pV9cmQdh7YexaXgipHEPbNMOhiYcLeFQ6zZvoBziRmq7mf1+GdOc1BpAfA68yr0J+cB6NDiBtSF3lY1071gVGQAIzE1IpL1YVZKa+j6hr9iDT5DLLEmXGTd2E4XY8lmcmTCWy27yD24gOle5JZW88gG8ElFtypOisGAj32fSj8hQjoMYT1ykeYAFXNoq2k806FS7zctyO6f77kMb4Yig3BlcpppenVYMqj9npXKfHZV3sfeVHHurCRRBM6nHi8rSFPHpVgHm06iYeX1EQ8bie70wvmx1wk3YwzzhBO2yqnKPlMz8vgxGM74c8qRy1Xyo1LPja6ViL4JseMDdLkJTnKvsmqouszurtYgOe6mhDm8HcbBeewF4OFfsE9XgizFZhDTiLbZq6ntaedVCEmB2AAqyK5uPP6hOn2GcXs9M2ysZFDkdOL+iPtKAG+EVmMYwUZ0CGVhdgA8ZWe+A/Wu9MJcykY4FzkVVGumjmvoNqrUzrOjI109gxZRgyHZDKuK6RKlgPmjJyY60XtrhCNId00ePfRsnBq3LfglYwN0MzP4QQCqs2j0EQRqlv+EXRVyc1aSYTGfTeogvgpnSbaK4tv05r09wFKXTYdZYMD64pMpd+in4gHZ6Z4N66JMdYnFoQpHx6Bn7jey75pE0+YuvxQfBfYdvr9NHy3C8n6fE8lP7V1FrglUZA6wq3vz6D5ZgDjh7PRfpaC18+AHqu8iKkdn0GUsYvNuvxPLRcRNGjR48ePXr821inPUde5x3Q2iLV67Ni/7wfAb0EZzvrMyro91d5Efb6eZUeT0O5RgsmVb+d5ovQT6v06NGjx3OxRh+yvAEMdwpfExj5YqvHM3Hc74TQ42mQxbxrgnh8HFQ9noH1Wq/Sd0AvQHly73P7/zSORnzfNeAhJqo08d3eiN9cAKI2K4vweqwMK+BfjBGX2ptS3V27396NWjbXIbpt4+T8lkfQwr1aheK9x3JkDJHyyyDz4AuBHn+MmJ+Jl0WcydeA8Rf32ZV5Y5tmy3qx94r7JMWjNGlOZMiktI4FXU08G0kBCsjs0H8vmOafnSszxNxsTWXDpsHBhjKgYZdY+WwMPD8bMuaf3um6qYny1dd+pewyt9o1zkj4+RqJFm8E2Ykx0aAWttgzPa6KrLZ5XSVX+2QfqsiyT4tivD+r+a0XP97i9ha62PlKXZxkyXOlY+7r1uokyjRIZpnNqn2dF3Ve2Nx/DJaOQbOIqNC7EoWxPup9v+VXmmVhHZ98emj4taJgU7KSLwKpoB3g3nDDhB7PhLqJTF4XzZ7R4/q00k2mlirTStVZlGpUAEklGV+PXPpjf9PPIpiTqkjRrrOq4WuBdFzp8di3+T9EmUyLLE4rW9uqaRw6EH2lhjqO6qvILW5IAM1yz6WN9R8jR6WuarCU0sqmkyqriqLiF4rRUS0cY/UB4rHm6oqch+jBXaKr5iRWxZhbrTyXqh+BWXVw/30YG0cG9aQ38mora8ZNfYnM87P0bZ1ZlCwbp+FXoeymvAispkW+ZcsBWj8LStmiVKODZ/H2vamurGuqOrNFXZPabAIetpUViJ18w/mqvwrsoNzZyovMmNrvwlFW9VDlci5h4j9rbrsNmTaLvDwuty9SHlnXapvU1dneeBeUIjvPvRLWaQQk+6u0sU6H+1CZsK8f+qKo1tkURVtsovgrv5FBqIXWXUff0A+E3WTLikw/qZ7xlUjbtqDKnAdohva/tHlkZtNsRlIBdVb7MsTodimOQQ9phf7RpySTmtI6mm97ShHCJR+MyvH4AB3VuDgo9kB8YFg28VtugBhfDfwqel3g16uARPJZUburop6AYBI7zkrfAbV6E1TgiaLjKsvDGF2W3Sr0VRoPIpNxcMFt2J6DfDFvLmaJawruVJteFjYpL+LoNIHIpBQIUlbpXQauokx5ZYvGjpu85Hak3C8ZQoqqx4mhrBvHw3JLdtbYLFITD4fGXJsBnICQthorU6uLTpx5BZzt+yJZB/jqH1409bHWVld68SOKm9n+lqsXP5pxcjIuo61kmrum3p1WzTZ6CbUNZ7VzcZwsisJKG+YeKfL8Y+RFk7h9bYsxBlWRs2PdHM9OKdZaiNlNvjjO0GlodE81hJRP3Kl2z82/7uqxroXhmBoM5fMol02wi2KnUSLnpiKrBHAX0rxwJgNDWb4mV4n9dqprgRZtU0FYGLslBNjhws/d/lgsI9c0emwbDJZNa/O8qeummtZNk0egEhTQFJymNZuydWNcV9NnvQyJ/2cre50u5isB1F61Kmu2iqLZgtQy39TpNqLWxSmiHh3l3BNhRLFIGSebH7hZlVHiBVOZ6jKOswMv/7pxnWwkl0nCpnCzKCAUpSBoEPbiFUll3VBe2HEaDYqkdJAF2SQpqwDogARhk6Q4bF9+lGdZVo9tVmdXIsSgRXux5Y+Rae4m6Yq03NWb3C6427oLIyBBGjqgTlZBzNm0qk9OskvpOUG+3ZsJhSE30hLSnO806HEaKzKMOoAExFMb6iI+Cjs+9XgGWgOxNppr7vq3M6bol+s0TWoMjMD10Q6XviGW4aA+ldTblxi0ZtuZ5gRaUj37/IqBYtW6qtDjalyw0m2dpicYeOm6PkGoYa/ITqw120Clt7czGcioqRe4BU5k3GzhdTXGT0jbtwUJo4WssuQUnkL/Goixxx9iacivr0EqZjZR5cHZXEUmhTSZ5ySVUyGV1jfEbgREHGo5ziVBxcRj1GP73J1GOAXndKwybeZtFH8pMHgGgZJUKIsEriKbjQa4sD0c0pSTZ4SYD7WQU+2JygiLAS1SoMUIKMcoj6pDJSLuayHm3j9rAqPl3cjBWTS/+A5yYS24Yiq7It12QF4SjG+/ZNi0fgb9BMKsq3RjgWeOgEAqk0+QVThbGzUYhknAXQcUuErXAYEmEz8vIjXeVOhirOX0zlw28wcF+VmTbq8336G1tpj6rgh59VMyr4OzNZpX4Ymobfljn7LKDKLfhW2GshdeCqFwWmXJZQ65F1wlq09sBQETw1OTbnGaVsXG7YOG0qZuIHQ+a42UKRuQiKs+TcFNwAjk3WCeJFdjnSQJ6jQtTFzXmUyzpjyAQXNvSAyKt1lJCWRdRA3596zAUG1UjsKYvRzv8sGmQMJQBUdAn6Gii1es3bVar1JtRjens8ZAVqn/l+d5ErZxctNpM62n02lthFROmgYkUTcYHSbVlJuap8Ws4B7WL0Gp2VG4Qs5MIGkAKkOsTYMbrDbHJkbMiLhpJtG3T1qOGct4BJU4DjCas84Wg+VM3j38kMl+wEvkbQYCosCuatDgK64RXafZ2pjzs4YCS/sg0638/NcLMixaIRwdqOKRCDovQSvnCh7emQIBukD5nJf3oggrEgZyaNhdyKagwzgOQ3bVLSNR95MezVdrGl4FsQzY1wRrlNUePXr06PGO4E8i7vFMxMn6rK2NZbHYO0HsB1SX3cSH4okuAv9hteJAJnIyHxgw96fvesiLZgyhZYruruLN8HmNRkDyHdDjJ6l3eHTMcO9E9NdCXTVZPSmr/brmQLmVk28By/lgwB/ckXdrRFqXXU6r5jLLclmMFyeLZaRMzLVPHBDtVS7R1totq9/qvU+6TutVSCpZNwuxQprejlE5SfYTZInaK8NVl01VT+w0LxaJQ6Qjt3e2l+5t2upSHGQ6397driubyYo59elTtp1lGUzIbWzutqLoan9WFQezPVDzuI5cliUIM8neiL/srdF6FWOHaM0/EQNXoHW4q14hf/1mqmx9uLdI08oZnhK0ApiLfyd4XeSO7yg38K8RPzzEZZluljnn9JVtGp2rQXyss+vREbrWQM0ydfRGMGdrJuqdWDPyhwi28XEJQc3oTxR3Szl+f8suy3JV2qpMz/EYzKPD2MTDmKx+Xj6Y6HoejCs4S7vVNFt3JKjyQl5MAZySH2x+TdMyldXPN1ZzIrepLZ0r9FSV/RxfxxodUBzV1gwShY5ydHEbWI8XotZNJUtOTM0T90cKWm1QNdBcR83sFLZB1OSZ/DuZ4ulg+Zifd6DpOg3nnSj6EqRV7vIJcBkOLiRWXV1aQTAo+WLS2gVfcqpFJqskrx25SlrEuVVcDDceH+xrA1pH14l0nr8hV1k7ZJXeKy1kxqTKh2lh21hrarLYVU10Wtk0LQpfYc1+OeRZ7HahYuf2GtiPqkV6bP1rupchHdcQPf4f102RVIwcKGUzNZjjqSzP1Z2XI55weuy5ysGWbex0KlwFggpX0smAyfnXjjslSTouan8i91vgETHuvwrFQpeXrXGV+XFoU7SRbSI1o4ySNKrh29MrPypUBc/vyssgwMTFYh6djr+hhl7jkwlXQUrdzrYv5ZOSFDxL69nOWOPJhbF8jVv6MZGchdlxFXRcSNw3E+XNfBBvliNXcBGFfPQhpIIx0BsxlnJ3fXZOj8co9G1+x3fE2j/PajvWS1LCMKwLiba4aiX3p05ybWTDDwyn9gj0ofdHXLdab59gWCL2L0K6f8k3zHmecX+G4cTlbjLR1rmJmyCZ8TiGqDQiKENFS6t51lzT2JC4ZGxzWxyMi6pqlKswAopOQCrgkHT+Fli7kztqnh65BCdJKl0nFuMhqOOKByYDwkASv3AIhVPrqkjFECINBE6lC4qW268grKRj1DyxJVzDIxxpCpSViRw/+qrrXZF0S1BVnYCg+H43zpCwXO2lA5MWe4Poi+MqS3CVcJLum2C91qugUjJZAl9dmTGPH67ZAU2jQzbKaFKrhqSSe1lksGeidrOw4Crst2TEbGWt3CscCKhMWY/zMzep6s3bj9enK1IZVUMecHqVZVc8BrX9UZZJlFHq5Ucbpc3racQzT6OhP4D3BKSyC64ye3nSfgUeRb4uMKegkqzKlNquyjl699ZVBwpMYx41VanO0a+QKsDbpUxATC36nS1ylbxqzGBoKAtHGHm8mKvEC326qOwWDzRtdN3JAGEFJFDuGDmXGahhaKo015GZZUO3QUJuvViLxA0LjufFLRzGF29XnertqPB9YruC6FhtU2HtxQKqrCoGRle2wkBTuEb32Ti7qAPINxjCYog8xih62DaV1RAOxP4FUC5NqsYBRe3canq18adxA/xi4ETLCIhHdF8WigtyzejzeF7LUl8MluEqieZ+WgZcRTX1YVqkGBSt0VDlLcE1qRm5gkLXH6v/OSgguw6TjIPMkgPX6/DJf+tqOKFhm7JWKSao/ER8vxQ3ufWbGhRcj0kgGUmY1AdKdkCVLg50AZFbFT/A2LKrJLmwkZFF4Imc2D3MZd0tucq1HY/5yaS2W/cO9u3xwTFotuUNchs+bgUyvbh9dRyDdSS1uTbxcBvCSTyIBtkWRWp0N0LITnZmKK32n4cmmUodCHqPRP02XIU7Ra0L1HtcHKpWC6XbmztVfIOkdnXzaKoffIv0L9Tj8RrtsR/77696PA9ptU771j5t0iEsLupxH2s3r/IEcHTa4yfc25rjPw6TPalZKI5Oe/wEtT79z5NxO2f6ThD7dbQ93hva2znTd4LP1fpICR8Lt3Om7wRhN42/jKP5+hySY5626Ee9O67yPsYexz8tYP/v4qkjoHcnq7wPrpKGjazWAU+cV3l/ssr72DHW7a/PYJn7qzwF05OgeC9In8gO3xblGnVARj7M+y3en6ySVu+BeFU/if0T3t8IKGzR3eOd4d1xFWObZNwf0fke8ZQRkHr7H2CGZcot/k20Z4tpksaGB4q99e/o8fUu67TniLn6nVwmZdSNgB4rMBWnecZPLKb8fusV//we7O5/yu8KtebBUbV8fj/g5wOamx084vp1/1vcyTDL0wfbqaR+T9a1wO/Xq6icQw1ylTZ9ZB2UyS2qzjZ1fZJl2/xzb4KXPU9WN7lg6pVZdpnkuSuHtxTbxukk2XjM9evqs926mS70QdHcK4P1mlf57Zgz28muo+llVMpnPw/gdHEipzOsA5aDclJXd/dydvv9bO0dzHVVZLbJdqrVltQr5NXTFjH8hyAfd3cot9Yn+09ZW5tXAT9RVbqOA9alPyXRY32k2idhoD2l+K+17qBtfuYza4D5c4+0WQMEtvITU3nVkw0+EOr+DN5fwbOV06C7hRmv53L/jXCiCfof2ZJhPWBOnzLaE7Yi3wHfw/A5p6D+B3C1IhV30Y+A7gODoKq+CZpbmDX9iCic1wek43X6DugppNKCrTzibsgdc9YQl5+CYr3Wq+w/hVQi5U97e4Bvayqr3HKV+NmnNn48PCaXmfQByrSsr8rN9DjoPTZLVyXn983+AAjvJSg37/gvf/7/7kL0P5k98Sqzaen3bl17lPVl8giu5LrF1W42q/N7Rn+E3UdjeSqy7SyoACbi7l/u/3zVGQ9hfmD4xCvPk+0vobDWG2mi2ru/Af6ikJvXQxNnfP9P1Z9fuF1vlJGonvcbXKV3vPvrrvqfr1YlDt7vGv3BhVu+hjNKctTfffAADJTI6sfbrS5UtYpMFnNTi870D39yDAdV/vrTZ6SSFN7vG/pfpz7CP+LtngIxy4N1fc/iKYrOcxR98aRiwg5F64B4+nOnm/IQ1DutaMnFPaCJoyX+0MqlojgzEa1pDAd0++T7UXtjLkcRfdIAVxfKr543wW94Rp6reA3c3L3gqWV6b9j8HyhoLcrkDHmkW3qRIMQBDH7y89AzDKLAVWTH3DXBY/Mq4CqqRZXIFS3ZjlharCBoeTtCGxOuQgO08OhInD7lLsEsUUkDcJW2XcKYZiGUXz59/Hy2TAG0G+AqUCGR4sb/oEZyJZFwgnQKZSEDEjOeCMArEyd20CMOCaLL5EM/tybs8cTTUeu8rLJOO0w+Nq9yj6uwqGTyDe2K7ERKk1UNrnKNomRxUku3aJ2/vbPdMszIXKEDOkJE8CvRSSi/epIQwiVcIDLogGBJn+KGoYKdoN7FNS48JQDEKDGTrHwAyBD7L2EU4pF3EgYTR1rovOCOIALHgYlYMicrrrJGX06bg0e5ChqPNCBcS7Q7w6M5oJEGJvUAVeAqcMj6gkoq5uEddtJqqfBt0ocqXIUVS60YSaC/erKaJWJc1AZZBdZHUsmiDrGSr4hs4R3w5v/ijhfMINYi6iV9wZ/3yYuBy8MztSMyPhpJ/FQhRAQUZJV1OpBO3e4lvEKasLSkRFk87dJZq7fSUJj+h/YLWYXtEWHAFYoapnxKC+zUqC/fJaycoE+Q0D1XgUJ0DCKEzsql6t6TfjxFSLJu2tYEWaXjPRIEAoGO7AvRiUua4yExdXq5IKsgqfwtqSCLkQtWEgm4KIJijwYnPsneu6ToKHRA6w4ZAbG00KaWaFojfRKXp59ikRlYc9J+IatALhVCwT+0TnJyqQl/I1DMIjuwrOlEDNGgyVVEphDHqAuEfOMJgyasnKAIOgRAMG4agat0xCMJo0MfhtQqq5j2uEN9RB/BQC5yFWROBB/YIgwhPLESBiLx8U9LaJYwZFx01N50XGXdkeZzX2bgvfznn9Ahlzplf4GCCk1MZJXI5H4fWzESH6KiOAFpJv+RQotQ0jBaQjON8wQjTC8V06mjVXTj6pgx+nBIkawXUcqNNITw4FVcwLuXVeS6lWZEi6qWNIqNjFqkgyHLkLsECFIRnsGQuL7biZxzg5FZMhFpKE+QLt4YCve8VPlxSBPSuYakguILqlukGxQ3Q8nD2pFKcu37C18X9Ma6HtS6afRqwB3CIq9Bx3R4+mmh/eZKuexPzYI2tbYwVO0cXIX1n8EKD7fan9YHgqgIuePGPsKcfprOctQmU6XQASEUYSMSMCmETAIDLSZULCgkhSGc/JhwyZOfQ4MH8IyhXtSNvcjDZwDDRQMaalWzGEaqlmOnGIyK/zdLGA0Z42oEZNwaHZ77yBFc3QjI1wAKftdu1/oHuxI2NynuG46ADEjgSuGWo8yyZMS9zz9fuYGZoPZd6gqndhdxVCYuQTTxiJINDWvUQmQuOVt7E11a+Ltpy3xg3FfhOCbPJmjRaUIeghCdiktGmOpSndoBkkRZhVyFLMPXPlSkY7KlzgwUQtLw8gZVousIi/MqyAyoOrZZ28a2USrN8vPI2F14uFH11ETL2prIRz5q5FhVCZmc1nOVdRoBxdXXoLqFHwHxgkiBZmdqW9cLCLFd9+JbJ7nKNilNlbHKdGNtqRo8Cmd4RozOYjS55CIu9cJaG0eNRtmjE4GhHkURZRXUKTTCVXINh7axetQiOn1ytEd+5b5NF3q3Pf2EFt6a829lUzN+kjFHQP6H2ue8CAKjZEXBRNJOgcgTDjmNJJn+hDOKrEJuA/+gDaViWyvHPMRzqOiKVNJuW7NsoICPOAWpIHjKb20nq/TzKqtiBRdpby5RmTcOBSUSANm/jHzAVVSzhfKkl9mPo1JnqrHXxtZtthh+Z6+FvmsbZT5CrxNHX8CspFtxGpWx5AiIFUmugradaIMA5k679CI3G7o8u4z3dD5o9PdB68jn4CjVGiIGPEXt4JKySsdBJLWsSKTZMz6m1d/FK01EyfTTabInsYNYYmsb0ggI3KQ6MdNsxVVIL+0kh3f8SuEqiALW3QhondarGDbwB5ARkB8soDDRa3OpPu5Q++JmgaE1Qqxl07tRscovUO91M6xrWcZfarcxRU+R6NqoKbznEg3ETwhBNAR9UVbhpC+5CoRLcJUR6AA+3ayua+1MVjefNuZb8A2Z8gaMAVHuSRMXWgBXoRQC3kA+4gdTQjOtzACxK7phFkgb0NBOqIQZQLzJZ+EqcGm2miSpdRrbrbq2l2YKQoaHegoqqHm2cAgrJleRGJCg7h0QaHhdsHzk7D12QFIiUqzRnGUHNp1QBvYNGTbL6BqySjKboGl9cp/BQ1DGptmN5qCpedNsQQbc0ChJ0zRL0APGNwwuQldFFgFzeQe0jLLFKLohMZlNIZXP7mJyXrq4tmVpkwEECZAB/C7ltAUSFgZY7Q3fAQlfYJMXroFQwURwzak5hNkAClKT0D0sGK+wRajRAdEctrG+4gAvQZeJeEdDxgiXNfpMUJF0PnQYuAq8IrJOVll3CFdhgbCEwAdccXJcnrAXQqVIQ4aVH+3GU5387xOZt3VXEFi3mlZNMYLICzhPLxbZxpX5MUvyBbhKBmaiaHiZcJ5X3gEdtW2iT0+yuqSsUoBUCgex4ThrSCp5cakoObSZnHrweZw5yx5PBseUVVhtUv38CbngMZqik6pPVORQ2WEeVmzEKamDIxp5XYjsgWYXYFygExDH93y6d2gXdVZnyhVNflJkkTohE4RnUBNIBSoWSz8FJxBZBcWKBoQnCjefLmyzRzYMLYseLZaztddRdFxbW6Ohp+jtc6W2E3ButMqywcjINXXTNPFhZk+zOo5q6XeCYSRSMScycminzaZrzKhJ4dFFZ1t2y0Vu2mR1YuoEbZy1hRQlEhcSAI2fV+EQiCmlVCUcBWOV0joM4pGInNEgzWIshBLIikIwZBXJYBsNT8EtDDzE9RRsbLB7Cp64rVSyZdEdRfMaxMrfCEmDV762Wk3srxPaRyf2fbGyKYL3o4cyo/iQExRiRG4OgvFzaJG6vmYHEKmhgWau2FnA85wB8HxkdHDKDKQjQEiwGtAYWpFV4Eoc0c8y+G6jb9cD9Elm2Cp4hAFtSagRz9kW2oCoQ1IReVNSSqrzCT6CY8ZDMMXeWMy8W6ZfRkB8HKmbowFcIioEPQTzgkqOdUauYxQOxRwJ4QbJg292mmCGgVTiZH0GyyN/dts9iKyCckSj8/QiptCQo7B8Ka/ICAhNLNiJG9xbNFOpQUqsAjZcWQIlVQOiAmRW9BIMAkbQyQWvuG5YFdT4EKlmAhjzDQOS8Q8DG3ARAlx1DINK3+AxRFE3EgA80EIE3yBliHhChV+vIiwKgeIHLUQmBiYIT77s8nIOHHouJlF88WdRfR6v0Yr9ncdJhcMGtjnfBlG+fA0rWilovhkx2zGkFxQp2jGNyYBCm2Z5Uo8HdKh8KCQMWvlLZBVWCIcjNPKeGTjfMnL6gh6kZmguzMFrJV2UVQLP8KEwfNHSrzhheBwgCSNgUHQhDhBBWK8C30y3ZIChMiQ+xCX/QmBifkOSQ1z0t1qvskb7q5S/mleRpoRWz2ITLTkF26C0SzZ9chXqpReAFVuu/9GrFLGvRK/wrZsGqCm49m+WYQL/8sqocyZEFaqIFowLxgzyiAFDBV4jb5ZZl0KbQWjxrsQNU+U9w5AxS5JEJelMKHtJOoNHemBIMJOErtIDNcy8I4mL7Ct0QGc769MBmccWTFJWYeHxwSkLFB0VMJOCohnYu8gqbKA0oh2bLtsc1P7yJRv+0rrp0/+6d0Big+oSrsBGvKrzkAD/J0ejw/CAIbgKbTrJCQ/ohEjohlbykLj4D+HTMcPNP1PtE4ok0xGU8mROkCvhmHTO8EhmS4mMztdybS0l0odIc0iTLBs2X7ZoFJdUNNuuMAAqZQTkC5HtjnJrqC8+YHoTGiPM5GJhMxAoWNekNHoXD/IQhdQYPKLpi+jBdMCUjR6++BCTiLO14lCcSIheBwUjgVpCoz3+ImQgQFrLn4sQGIP45gM/SasPEgFKAEJp9Cv5E6dQKIi1IqusO1KMT5+AJ5469SsoiLUvgEpe5D2CWPsS9PMqgvQyfgJMmqVB+RyY8qXeXVASJjyfjo18GFTPgIk51l4zPPYhapll2Qb3c8Sdv9XFX+IfG9nlZbZx1+KOO+//1rB7iEGw6bSri0bh76/kVukft35xXYnKq1fXSiU2t1rRrzRicSnh37W94+KeRpyvNP6xse2ZUnmyPmLtYx93qIHBb3DIB2/d33zjzcwPccFmTp23OpwHxcAoePEqOA2G/u9NOz0iMPO7wTNG+TME713JA5ZicIiIvcNgz1R0P/+ggXeL20oHjz7tohiIhcIP7iRHd360vxPEyjlu3i9u4nHuW9jeOq1XeWRepcfvEaS5r/2+tT2ehr01OmfZ9EcavASDNdoLrkePHj16vCes0ZytStdHLnsDlLI8bz3w2JvlHk+G21mf9SrDfl7lJVj39So9nox1OmVsnq0PB30DqH5WqkePHj16/A0c+X3y1gLG9fMqL0Bp1+fkjqcd8tLjF1ivE1HX8/SnV0JardN6lVEUDbPk8jM050nGTyaiEnoymxRPFIVyeKL1qDy55OabBk9uFmGg5YGPMZ5cakpvX1vvjd7dhnzH3n6Bvfee5fSeBO9XWeKO4B3OH4k16mJ12Yb3niU+VniHdZxsXEmsCJ3eUySe3s+yq43gPUHv0CVaMbEh0Q5PiRWJlUTTO57c2IOJpjd67xJNb4wdzsU7niHRqYWbNQF36Ypiu9AZyuNYL/i1f+T0J81ayKFnMSZ4kmQy/YlFM6+1buB8OF1obr1S2k86wzOFM1biZKE/0Tu9sfLojd5rveCxxPMG3lhZjJWVFWJNtfXeETvrXmKNY3hfcJeTwelC07tp9CfvXftY8fSJXqwSTe+Z1gvWfa0/cfeEefOJ+7pEBrHuwvsIzw3IpF2syPODROtFSPRUYl1InmPkleetlSFWWK0Xjm5QZUAbnoo7nvDpvxNuj7y2RVnx0R75N6o34SMisAavb73BTfAe7NtVsP7ZjRr4rSCfN4gPgEY+gUaU/slYpzXMvTfEKuCHzfL0zuDZh37kv2lqu1S1IRU+dOZN3C07bzchmOC8y3OX1857F/syRLMqIh9sj3eCUbXPzqRHj9+hqartoOzR4x9QVlXPVno8Bac835mya48e/4hyTFJZo6mLHs+FMJVeWunxW5x7SumllR6/wQ2GP1rPdC+t9PgNNiudz+vM5EX/SrPHP0FlV4Mo4qbtJuMUeo8ev0ArJ+3UfMkUDfpJ9B6/gyeVHj1+i55UejwRPan0eCJ6UunxRPSk0uOJ6EmlxxPR9C+AejwNPVfp8UT0pNLjiehJpccT0ewGRY8e/4yeq/R4InpS6fFE9KTS44loToKiR49/Rs9VejwRPan0eCJ6UunxRHBtbY8eT0DPVXo8ET2p9HgielLp8UT0skqPJyLujwDo0eNfg4r5yd1g+csv79RDi3d4zIRkQs0j8+TPB82b7ekoaWm/tb8s0LBr4grt/IPsLzninpmljTNZfToYGmMGaZLkeZJM5BvOnN28UibOuckmlHV91CqlwgaN7wK5RfG7qWkkicgC4HwmuKks0syNQltlyh/+E3dj80ghF6J5XYyKc3R4iziTjRdYoEPVFajElzwo0BaCFIpT+S0n3zHifRTeD906ORXaFQd6nNVFM6umdsxiVdbmdd1MdSV70sJJtdNMp81pgxIhzDtgMnmBpE3rqLbUnRQHM/1joZsx8qGZ6Li6zLZPG1sUsrksnFSzxk6bhjvXIgtl+XqZiLnbc35x5MYs0AmiHF81vkBlKwalm4cFWk1RoM2U2+O281VaHLfNjWLh+lHqUNBDE/89BqRKt5Mbtfj0Pa+uXKpMOtWbcXMV/c9GpmCaXVXmdbZVJaVPpas0GkheV+FgLGX/+uDCnGfFpoqr3bO6yF0ZjdLitBwVZXRaR5NPLOn6k8nqTBfufE4PKqumkx95bitJe6qrqvDV9mKoclLlZqltmrBAo+tyS6exTcD4omsp0MnYF2geCvTLvQL9ukpLvE+qjgtLbmOKK2N1oYvmr/GeWBdImds/WOiqkH2akwZDy62yLvYcChttIJSmdEaR2q1skUTRueW+1myPmS/uvwnHTLiNStui8ptL2w0kPEmntszIVXypR1fCc6Lo2ha2QJN1RU3KGRaF22yq19lRI0YaisSNi4UeF/r0KIoyxNo0Za3TvADfWBVoaGkn+9PZbYHO9ThP64rJ9fvuNxX71mhzPz6v6iS54u7rfwcqdmhquvq6LItSuu5sikY4tsVY6zFGmFklHWoq3RNIo3ZRqW29w03DgaSq/j6pmDjTJbidaa8Wc5Em7VWkipndAUnYJRhfJWPljUAqZROjy2qase+M8gpko2b6VdorCrRy5xfV5jItzn2BbqHCx9Nix2oeZvmwQCFeHaNA90+kQOEZYVRoriAv3JJxMaXFpQZh+yL/exgWyFy1Z9Kxw/hBlc1i09S7Ua6PYjQCWEnONrtzGFUUO/DIKisl4ejl/z6pkK9EYOClSS5K00Ym1U051I5ztDm4SlYJ54+SQCpRe3OejMHoc5EDcjkLwRbfxO7FMGPjwOQGe0UoUF3OtzImJEYyUKAighzPpCsk7hbo6OqQVVJDZilAyGWVN+QqLXhlUsSpL/S/hbjI61yPycPRyjYPxjt6Utdop+A38c2i0S7+vJdm4IvOxSqv9b6uXZnb8UHD8zSiCPn665hoV+cVJPJqdrEJjoHONL3Ih7YZZosoHte2LF0KMcyl7rMxWVOM7VWKzqnQdeJ3uZ9Ur7WmP64mXYGitlO9U80mjS/Q/fhIo0BHSEu2c6dAt12cQOT2BZommpR9BhakDppoC2xRDpytUUGV9QO4vwKTV1Vi9P9iN3YQr5Wp7WieVSj0iwK957H59KUuihkLvyiyNqvzVEUNGsbIZVsi0I//OqkcxXVVlWWRoj6OwShUbOuh2Sp0NdY7U4UxhU5RE0VRzYpifDxoTiajKN5Cbku0CgphJqte6ZiVGynQbzMUaCEFOkSBqmyMAkUBDqNNDNOzMdNSXMz2N8D4QoG2sctkDHQFK5RvrdFZzWBFVpiAN9bFpHTjHWmefwMp0pxHQ11G5cFIJkoydJGtUokeSE+rtFOH82/gMIZigErTctNV9Sae/gy1+f5fJ5UfKPkycgeDKF/48zMo27ZqjrGwzFYc61iZ+XzbfpsP5m00TMvjzazK03TzHP0V+q9xla36g5chRdPPMdZBgYZjtinWSoEamXubo0CRlslsND+chwLNqyzF07tv5+nsooVUjs4q+Xa9QNojHkNjKG/lIvH+FRjnDs4xFCu0ri5mTEa2NTBlelzP9tIUDU35iYhU+5co80ZbjjMsRhtWSOsdcJXy7EovMWLQYPpaDvGxmRqi8K3FDfVTBlllwTu0Vi8smLm1WjYoxdA5zBG9HCjQ/VgK9KI6oLgRXdq5OU7TWvsCHchpQ2iZnovNm8VtgYJoZYSTVEMSGmSs8T7EGHdd7IU53viVBmrPQowGEOvMJePEgf/N68peNWNd7Rez/T1QQnFPYEdTVUZvKXCYmhL6uyAVNDYMX1yR7zWziTNRO9Rjix6f4/8xx6CbfmTP9i2Yq2VZJcjEXF8hb6+7oW2MQW5cXEmBIlrVVIsEBTqG6IIaj4wnlbNHChRjz13O30EsURn6H7N3tpdq/fkbZxghU8JGRmt/C3FxHA1nbAhMu9ufTXP0sCj8+dJ3QMJVViOgNlLbOyJbbQdSkZHdXwYHkhgFRRMhht1CNw4JbdkBkfWVnNC4MwJCrrWViaIFcldXl3mSy/FyrwEDERTDysjMWGR5oX2BJtZ3QOrTF7oq0V0GqFqmxaXrH1WLdJRVmZKTzwjKKpzlxIg/x1hVJp//DlSKdMYXp/l2VSe5KnM0BHM+KmtdjsoY5Q2ukjqMgCapY4ZMPjvAEx1+gQbJAFaZ+mtoVTZbRp+rLJ/uZ4mLHE/yjZF+uxWXJXpOyCqHe2fpdPY9ZUOPzrOqAfOJ4OcYpILmPi4qmb94MVqVglTios7rajfvChRpOdFlXMZH5Cpt+jnNqq5Ak9mFUErMqc0oZ49Tq9jzQQDM2yzISuIpbP7iGYeDprgYgqPMpraxlofyAcmBvpgVB1rbQ5KKsjMI7/g3CuL5Pk8p/G6nBWQcAWSzv4zS7oN3n0H42NqyC0+5bXOh9QFEsAPoN4t4NMMQ7gDZ2ogGpxjFItEJhATOT6vB3PASfy9EO28KSCFDMGfbTBcMHrjSEKNQoAVGXfPCHdriYMYCnbYo0B0WqLPTC7B2YLj5leOFFUmweL3mKE79+6C/g6U0szlY5B2YOI5NbEYxrFRS8k3tcG6GBoOHs1zE22vw60NxSwbztzF3DuOXmCeN3gJ5QCbwR9biZLBEHswAOcGgI/d9TZrke69e9EfpRM5PlQFVOJ9QCtQnBo0TbAbJmLNQv4HAecwqE5/0h5q/a/x9Mu/Ro0ePHj16PAUyp3x9fNt1P1ikGmNMGQ048blC+Rfngh6F2qRcOJKBp0DJpP0tNpnJ4a09cCaDjrdGzDgP75Teg4W9hos6ffI7xDJP9w6hLEeYye2KjbLYxDhBflKYzRZuZtyl35RlWuhyMw0Lud4F4v1N3O988JNrLl/lTwYXSuYtXOHfULACy0lVMxOvPgx6gPoUt7RalRUX9vrCnQjhXhV8c8WJY4Eqy2NbpGmZ+rds7wtWZn9WM4HKahVrD5KHKbJU5pjT1LFxuMJ6FH99+u0W8zFJ5XRFKqNqO3IhE6T3dJynaQrqQCZYQzUyoZmJ8Z64fzvIp43pikajemeIEhaQPFo75RIJWziULujpeIyELZAwWUT3vvDVFQ3fZ1VNLZNwZspJfqW+KeVfLyf/d7K40Np+QuY4X/hDx8PYDIexfTebIR2mG9VlmTfF7LS+ZAmP+PbtCBngDwbttMkLjSpgDdVoxk1juKx5WPq3XG+G0tkFSteydEmiqq5A04rwpZuOHRMF0gDgYq9ImbLY8KXQ+0J7UlTjxmW2OGn4NsrYIp7fXcM5L7KjOUpVVoyTltzYNs10q2neD1cxW0VVZW77QGe6mLMRWzW6SwNl5VqpAOaDmauLrWarmTbT6sy7eCP8KPYr666aqpY1s6CUvejelKe1am6YLPzmkAG+ji3T1Uxnf2/N9a+gjM2QqFxDHAFVx1sxyjF1xGfnVLTNN981WaKVRc6QaspRWZajzffDVVpVckFQVO+i1wEl5LVS4JUhD2mkdDUCu2QerBWJfKuBtFKORu6NuUqras7vpyBgvpw0TRolYyTri6TMRDlXnCbSFX6S3nOv2EPpjsrR6Tt4EfsTLPtMkMp8jKHODZRVmheFRkMtPsVlRVI5/46ePk3lxc+kqHfrk93d3dk7OuVgzg8MopoCim+ztY6bQl9w4WKzTKrqOGpTyYSfQj+dMQfIyJu/1xdZpRybCOIsSIcrZlNZIYSUpcOCpBJDWAFEwi7HDVO2m8kXFO8N0+llBm4cxf51+KTKohYdqbJom1FW28tIJTVxKksS8tmEzdU5GTm9E1wX9VVdc/GYF8/rykEiGEA+z5Vqp1c6jcyuz4RksrHfmYW9nKtI3hQniyRrat0qPaE2rSCDsHQzjdLNIcJE0RdJWJMw5ek+xmyEfXdcZVkmRbG911Q2OgRXaVu0QKEIFCfXJhvVgCL4XSd+0gLzInFfvuRf8gvhmO8BKj3ZKfLPGgzQ6UMk+rQKxyr7FTdDM0MvhBwwE55UNAarX3KX+G8S3gxxjvFCKl+ECVeZjLtvHBKNm5knoJzUJ8xROEnHGUs3d/Z11kW8Ioyd7YAW0JtvbxYQzuMil8EzMPVcA8xDpe7M4fKfIJzWkLrQCrbfmnc/Gen+bAeJOa8qJ4N+pyccTQBh2Zk5+BoN9yQPZ7LQyfFr0Gk9bbbvypivDtUUxSkooK6mJUlF2azbFyjzCzi3m6gtRXA52+Nr5hj8BQlrmvptafgZaDHKB2kM9a7eKjbBrEH+l94qTGiBVEaVCF6aw2hTDtwg5ag5Dtznr6OdmyHJPC2yYmqNagcDI6tsO64SDSH15pXI5mOuhsNYyLVJjUpM37ZGrhVJY7k4RemxKzSy3I24IleR1W+GY2XYkxGqVH2ODb/iMPfXhrwLLCnWJuN2mOrNCalkxVW82ArKKflZZIvGOuQa1VinytqBcX9vAflPGBYQydG9x7k1J6j9WPNtxIqrkJISu+QaEq6xReNOKxWPd4/Mxv6rLcJ+HCQVV8XqeCsvyWDCUtOI62eBk8avzW79VgOugHTVQiZX5fgdiYId0NEMJF0abBkPuyHGd7hKXJQ3KlryU9u5TthiVRY3uQsCwTvAfJxCYoSICjr+hJK/Dlyl9VzFgKskC25OId8uj6pRWgyiURLbzbpbOPxGAC1EltNpTYZRptcTIqsIV5lr194cYVQBxmhPj5jiLM520zcWo/4c8dcin1v5gL3RMjsh0ycmjv2n2CSVUr4/WBQo1bwygyI7L/l1rqwQfg9Qoy9VOSxYCUpr1n3MDgn9TOrnTch0csmEpitrQVeuHJXZGF3XW9aIKXXdZrISPymkYOVbBxXHzUpWMbpYcLoWrrg0VzdlPErHV2ETkHeEk3FxngqJoHwXXOonskqOkb8vQ7sdxVXm8nyyiw6IfXs9PtAX4+YQ9CQu/joG0/3FPFsIe3DytYaXVWpdcNk4tLO9KD/IJ8jEFiogx9CZ261oMtPRW3KVvBg7/2VGNF/IB0nCVdLCf4QkWqVrJCxPuII7aaN8f3YxKz7F0fzvfqT8M4x8MBnUsihUdnwx5XF4tVnym01RtaX/fK81wIBDu/cCblnjEw81E6ZK6uKv4e338hj2nq478lbMRPDydpgzAaEgQ+kyflXKoghqRyhWTxIdZcy5+NaXdI8ePXr06NHjN0jf4eD+j5G/n/mf+0j5Tv+/guSvbyz1Cni3G6f/b9Z9evcfQD77D4ji3WuXd4dc/4cGOvnFf4CrvGNSefPR+r+HJOyE9KHxbk9EzRf/gYbYQXaa/ugI+wa9P0ze+P3Tv4o87Gn2ocFN+N4l8tvPgz4+8tfd/+rv4O0X0D4Truq+FPsPIF8tn/zAaCp5z/z+8J8oXQ+VFpeTqrn3ufKHwzwZu6zalbeI7woo3WxS/LXS5Vk9L8WA3zCVpctrq5M2KrcqW7s0NoN5cPAShHT+I3hWz0vBnZHiMnVJLZ/TTvR4mrlS9t99OUI6f4Hg6NcYmGGZ5tu2yNooZenmaWlMsPwVXpPSj2KUy9Rqbjw2e8n/Yqa5jZrWddh2qrySxR3cI07TDbdZ44dCD/z9/s9FpNOT7oCTx6DiPKu5ivcx70/4I4n+gcTyWBRtt32rVek2kw8g+VwQEm4/hfDbPzNRZ36H/gdQsbtk6mU3vUe8hr9PRZP4EUOZWDFZlepjFwtuO7m3X8KzoSbokW2TJTnxv5f9J+7sOL435zyPU+dgGdx0eODvt/8k2ainyLjfoP8nmERXelpLJh7z/oT/6jH54tJSPjpdwXSZ+J93cuv8j/4JqVlX9uE6aZPbfVRBzUPF4O6htzt/53hwxC3ulO4vkCRJ3eixlg+fX4bSVnX6/rrjx9DOyx+zQr6PegCniw3uBvAB0JoyK/wS7w6lHW/vPdjV5XUxj3M7fukpV2VhP9T8h0qqsNb7DvJKDnP6MBjeG4Sn1fTfqAK344/Rey6U3Xohrf3rkGOS7iEeh49KPg6y/RV1KL3175z8+cJicnJ82ceCnF9yF7vvdU7115jzNDmPPGyb//aQU/aejfBNyYdCt2XBCuG71w+F2+8vVqc9vDlK2fThuXh3X4w8AXf2vBIM/MddHwu3BPLvLXTgaSvPB0+n/GhIV2cOeITvAD8Wbtn5v0gq3Abn2fiYXOV+BxQ+RP9YCNsZAM2/ti/RC7nKRySVB1zlQ5LKX+EqL3r3+f52I/w9zsKhbB0+Olf5KKTyITugh1zlw02rRNHlRVB8GFkleUcb+D0VafOAqzQP5+Q+APIVgWT/2iKl+F+ZFX5X+BAvrJ6MfzE3H21ivsfHgkndmWx5+rHxn8jEv4bnvUBIay5k+C2y7aD4Derw/A22s6D4Z1zuBsVv8Kqx5q+c1+yJeWVwT6qLF6N+3pLy1C1bhR8vuT16RWmC+0PTn69BFj/FWZu7pzjzsf7DFR4SazD5J0wmv3cjsQ7w8OH903VZBtU//lexPvbvoNqoZKxSE6J/1f+DK3+e9J+CwloVMYyjdtkp+bxzsfh4RDUsH7O+vcxlLA7++eKZotHRA8NHLsZK1/cM717+J7Eydfz9+opYRPD1k8WDKyqv/ilOubq8end0/qv/UURSoaPHft0Fp6tYafIgkJ/+f/jzD3ikOjrKn8tVIp82FS2ZCDyVuqERbuEOAkH7hu7Gu3xg3S6PeMM/MlzGSAc0u/f3vuAQdkcR6XpJEx/aL+5ReQn6/bWbJRSINxpkIyRxKelDVHKPVgo48XrGeoPHEm3ijsUDLfM6gNdfxNnd8ZdYkSkYhPq9fUqOUTHL9ub/TCJfCj4SJAqX19xeINBLE9GbmN8P7Ofnz+EEvdf8pA8aqJdHyyh5JleBN4U+iKHz5uPhY3WjkbRvumCMD61RFPBDpmSQX3UkAcBI/swN7X3q6RD//DOeEoK4XcX+QM0O6E7aHrpskXBEJu3bkxTDhvENfImKt5tOf4RuT/hBcEGbaNnSER7qSBwibN++JQbJCknpgRoXmgVIhWoa0KN/CCUtESDcM4I2n0RHq1Kg6+ChC8h7QweE3NCfN/emEtgjT6mGe+F4vdjzCvad3mvoEFxFPZOrfAVTlmJGaGx5ZAqoU7ETFcxB8+kl1KKjJWP3LkTPdCDFS89VmHThI/4n7hgULx+NtG8JBFqGiX93hYfETa5y07VF7z6EFjwfteQlXawwCgmSWFEm1NKdPNroyxfcyf3ggs0xJA5PKhECfshEmYDegyPwLFIS4TUsLPEcDa5Kni0VEiuKkEdE5f1Sf+NyEIroJRVwzmL2aQoXSgAEinEJDSVwb+rdPPKUNHelDCMJVxJAez7xC9pbO+pIPCz9ZwBchaEgGyC69mZQokUgqzFGVNIKaH4jAibKiNGGKCNV8uRBKV8hdD6iISqNPtBUhQCOlnLweOyd+EhYDGCBPhzxePeSKHHBouMq8EYzRhpi9RrvBuk1VyPSO935elsi/V+HUDFrSARUMGcRoa1LOhA9ScAgONr4dNA1NJvkKkwfg/QZE2edLzhD6w9yGcKSxLLU+GRAR2LIMOgDscLIh+jjQfHGkqg7V1RmK3uWKoygFquHT1w+HnG4YiQ+Tq/CTRx4L1B4NTQ08Gdi/DEoq7C7ZijLKHKWdR3l1mqbwohFzyhQaWzANBAKRUvWVjdoVyFxvtmbDXQF9CDeWK7ZJ2s/TVmowh3Eta80X6u+EmklUa3YCizQvjPfgdEBBRMf6xZy6p1IRbWQVRA+i40R0H3rrLXT7xBipVphyrYqrQlMhZ0VOYSKzk8RXA3SEwPcxHm5MQBbgDtf/SqKa21tI4Tho+APWSvRykLTlsihkIv+fA4Y65dcUu+LSPIbyVEmzDj0DJXBlVcDiY+RQC/+gxtPDSu9EGsoAN7umoqJuIdaDKgUM++6K4dnIP1M0mBqEWYJEkHBRalOTLllfYS4w1nCJNGVXKBM7cyx3aJruqAxlF6sZWX57ERmmn1Nv6ckaRRE6Om9rAJ7IXqo+CfR+6AZlrejMI0HfOIBRYtYh8cN0withMVbkFWkhEj0SH8Wl7W9Fme4MR8IBbKKCAySEpjMG1sOnc58OUo7Z5pJoN5PSGGGWOGMRmQYMMPVCi+TgL2ewow0fVwMyKsiVozEKsHBRRR/PylIPowj1CrMy2SONKG/pQ2jCYUl9uHhnxJSiIHOJMIQflCJI6+Akqa4xDlTkj/vBD2KtSBjabjDRhpPFMkJaCXbqo8LlXaJpwii+IEJzRfcm2aPG0ZLqkgdCEbaN3sf5FIKIPZfjJCgcUMy6Vzoml02TGkgFzxQGKK9FChdQ1YRVeddyTbrqd7zPEm8I+UcAUEtJYSUgCZ4KsgxD/BhImjMe0tZRUJj8hCAP6AyA0mxudGGkYCrzH06hYJAiQu+sE4QJvzRUPgmKOjcsxQJEsEhUFrQj3jlE2zI5Tc+aEQJkyNwbvk6N4TP0RHUyOuhMGQWIwQmnyCMGOEPpt47bnKFzEsUwrC8tbeULNM6qGiCmzwURoBt9L9nchVUGoJk4UVqaFggqN98npZzkXcZhZdVGHGg9gjsA0QSnR2U0o7YlGVOZpiZCG6kQZCIo9SmaSrzD/iFRCMyskCWSGeATEiBiJZ3iVe4ipQI/0iFj5V7tHvHEiSkBiFQ+vSPyIGEwYFG7CDoEjeas30zYd4d2QfpOCMNMAvBxksNkgWaIFbHDLD5MCxhj2TjjFWGTz6J4pqxhOChZgm0GHeJPzEkHStjzm0SwqJX5hgECq7CkH1avGvhp6xlCVhMeYWEdWkUuqa1t2Ws/FN9e/PhgNjh8LnzKugK4Bt5Z3rRHlEsseWHy9NS2i6IHtFQVpE4Q/0y2VEsXQFMkScx9MUnATIrGMM4bacL+wUaGITBBxKM4mProVbyQobi1XKJBrVxDK4iBSRBisMouvYdEIzYphGKyCrwIG4kfHQZda19a5YaE6fSR4sjMaVfFoD0LGAJ9MkbpIZDcFoySnFIR6PkdAHqYwrhH6YsBsgqjBNOfKKRFCSCujCTxAeKICcr8sFJ5AjcXga+KDFCASbOeRXGx6AlNLEWW9zwvy0fSSqChFLCxVOKiZcUEy4khdbeuVd5i/YF8ypsaSATMFeUJrlKaa0z6XQqdMCG03EVyRQfSHWk3MKW8CXRB1sZFVB+wMV2Grmp+wapEMUMF77BIG83bN8SkPfng6ALya03B+FKrDRQ9MgIEKu1myhn7xxphojhY/UR0xlpOKttNmBCaQ5j+JD2LQ5vGBZD4yfO9bUkTtIspuWVPCV45pT12Ez1RKKUxNE/ZJU4ggb5oFNaiB/qoEQuUXp8TCYiRyM02PmBzyBwFV/lkhfOqyAwCZDRMiR5SA5ESx/07T3hL+FJzUky/UUv4lDKiGY+KNzEEgl4wbwKA2H0aALCVUrN72lSVLA0FEbDrkBilT8cR6P6IhtKK5Um652Rqxyx7bBkxIInvxgeSOd5AH682L6FEYVMwDsD5V0CYmrgRWQVWvvygBnIjixE3EhBI7AwWwsTCQiGGc/YchqyI13SjAMfzquElPLH0k2ni3wgswXUwYoVyg4IqfVcAi4hOSzbQXLhuaxPM3/kKsyR9wellyxCBKHslpH74pU0JftH4HO7wbCkDn0xINYrP/XAP61whYeUuw/Y38WBeBehJvxoKU6DWu5iJiGygUAB2n32OyC0NNIm+z1UsnCVWLPRl3JylY8PpMLUkCyRFTxgy5EyNDSW/MEO7Rv5RYCSD/yXhp4HPPPFNzH+4Z3tG+REumcroC3+cqPHkK2OQEN+kd3STssjOJJQ6Iy8oPUE6hstWyVJE462MiSfAcEh/HMEJJFItMxGm+tdfkkkzE5uDDTa5EsMEWHFMUiH52acozh8WIwXjVPGXXBE7sEYELa8TiN3CbVCC+ls6Y7R0iGyYTxX8dn3FiRQJtKbyt0zUmoRJ/9eJSXFmG7YYTFW3qQMg/vgRS7cpAgYt9igfpIXjIA4ZYZQRVYhp2j4/bPTvi9mPFG6AZVvGYy9hRP/HbmncuSRvbNUGh2II6azZkilBg9mkhETGytETsoq9CFuW9lDhlRFBXzSjM67YasPD427DkskERJMJFpYzRGrtFfmhA2tniJxJBjWli8p3Ekq9EY9+wTIZH4tLrRo26wliam8AiukCn7orSy+wJGDCC9h+VvbzhMYSErEI9K+bM03hE2Fn0SC0+jIfZE0IUDkWMKNlG87PvdyUaw1HVf0d0m8d45LbnSPqAwMUVIoNpQqi2zwDe1lwPT60BBtcC5egr9g/fw3yyLWIlUMREW55kxJrrMy55pmRkYy9VIDU81UoF2DqeRJcpmEoYdQK/4kFd+0GSJKMi+uSmdRwSgMSbJ/eZ1/BtsidbJ5R2YLUWVwhPGSZFASBHeMFY2W/IJOwe6a/AeilVjhhDIBXLN9M0qakrsg/dtp2thzNj0GxGaGgLj0QbgPHPKeFxkXiOQcAYkh/mCNx5RVRCulEs3rxeQrGBCMeMEI4fkRkOjEZbRpXTSoT5Dl6ZC5Fbe0JFehBj+SIy0MytanjHe5vIQUAg8WPueikND4gCeW1N7iODLNFbK6dQ1e65BIjtskFvHunYtObvTIoCgN/e95soofLHN2gjQfOc5d4rFlLca9kkKmXCpNaBUxUpIq67rBb+srawOmwlP8sLVr2nS8bPPG2loMfVg0ld6SSSdTgJGpeTIWYi6nyITkkZEhFsgqnn2IKY+FbXA1ICj+pExhR1nFN2OYSm04zhDJkAVuoKcVOyAZWeEndx5/K7kAIxWJwdvJCEjcMMMolijetXbKF6ESkrhiqiCrwB20uJBWpF2hvqJc5nWlSOiUsgoci5p3qtV27rspqv0FDjqAQCZTKz7TwZwP3H0BMHtRgpJKkbuBFBvoZtSgErdPvBuf39WFf4hUEiDF83yuQgJniyTNMzwKAib27BCh8x+lflRAZ4yWwticecCfBiJ1IiPyZplNjsbwiH4VIdGHOPNhIb1IrB8LkFhIRbCeewViZzdFH56XSZbFVYgQgD1UCI3cS7gKE8DQvUfEGkuxeEMyQ5nhEGGJvplTzgLMecg8vSE53hT8AbGKV5izb8aY+5rHpvmUSP5QXq2Mu4R7MhI86J5sSxwhoBA9Y+1c4SaBeLc0olPakKtIMcEpC5h2DMvbixXTjYvBQkNyFdc0IGHCRUjg3Qs3b9GFgjp9wTsgRiVUx4Ji8CBdyE1eOJfUs9JQPiwGihiw4BIZ/KEiU2HqofRMGYkRYxYEq409OrRIrqSW7ZR0DR2NpEJFQVpll8I0wBA+jvlmmcUgogjXmuCB4Hy0kjIGLLO1Ug4MvovVN3m6EqfoRclVaM+wGSnqG1lgLqSpeFMvq4gnXJSxfGgSPtPZxS1cRTiocIIW8izTz79EC/csK467hFnQE9PGQOSVdIjPX4jVoBjpieEFsea21OAYwaBY4ELSKxkIN6TuBtWBwBm2v4ULf2/OWLyDF4yAmGLSr6RbgmRpSqpwsa5kBIQ8MEIpm3bJVPKPBuPzzIGAtDRp6CEcCQaXaH37gGUr74CoEaEk3Hy2VimB2nMVGXSJWyrEHdMgDdqHRwKlTliGeO1UdC4ZQAoRK5qF6GDpkyKB4PKGYhrkMp8MoSEEJ2xXbOESfuAlNAvJN0pEqIM/ybrQBdyiHo8cJCRfVjARe1x3iFPSRLGW5vgzPNwZBYNiKL5kfOgw756h5GHAe4iBbnH3l5CND4E2IahnvgPivArTht6RbUA6c8bvY8ElyWHxhayxGxVyllR2hCImXlYRFkFrJJluxb3IEjAWb92wVS6JCqZ0BmvOmiIxXi/rVcReOm9xIY6lI1mF7988SeFK62VqUNV0R+e+JEEDaN8ShRgiAATCoINUQQbCBApXkQKRcZK4lADol97ZYm6OZAQkJAl3dOHLT2pbPIX45c0yEypabw0NLjjHj6Z0xtlaqWCx5q9jX97E6zxj915hLu5C4HKT0hJjfwtueIOlD+kF74DQLhAAksB8+3AZnxQC0s4fB8vIhSglXpFG0JR8vtk4Weq+pXlvdIWfBEWVL1Mq4ZftO3CBzqn4o6loeFuNu1A0YkszuMafzc57o4xBXsYy8RUvgbDy6Nx7YV0hgz7W0LRh7FXeMZ3DPx1vbvj4aeoTKG3Yh+Nd0q2P1TdveUj8UN1xxidiJYuiFn2Ed8z0CG8SPUORd0BQ40djOpagcYmJL3FklmrpiSQgPwQODBZ/hOeDpxVuPjJvTjeSuuevrUUDYiRIAUOT1iSBCpEyaggXt1xFhhrIJm/ePdySudCnkArzJOXlaR2XhMi2ICZolqBradIMU2x9xqQI5S9tjpUmqYAXRiYWwQudQM+Io0PhKuQAPvGSKFj6gLyWwZGXsT2GQvQqcUU/TCuD4GwOA4Yo1gUXXFEFBTgKApQRkDhjglkK/NG5+OhCO/JvluUnBSZ16BXigr5hwBEQ5A36CK7wwJPNSXImiaGVJIUuoPAGvuGIQZcCBulVopEkMel4UtAOlf9nSL8HxT8DskpQ/SMG4KJPAWSVp2DzabHOMa5/Cp5YROUT8woCfQq+PC3WEUZA/xKeOwLK/ZJGYBSeVIi6ewLukqpO9wi8VZmlq+Duer/jU1RJF6vobi1X8EYuC/b83XMXzD3OM3cv1u55x70gT+7G2oGaYOAfe1kpT4/O7cMn8np2GyuxshGsdHl+xwaqoPGqld6EvBLB0Gf6AbyFv62sO8XK4CGC42D/zDfLZZ1t//ST265X8iHwVrvepNPc3vnrnN2adDp5BPWv3HU/cc9oOme3P1qFIPwjuF2p7z7v6njdc8b7rcN7Gjq9q39MJcGd4HHPiJru3939dUd3+/MXf5LXoLg15/02uJX1A8XPz8f+935fQ+X/GdgDA5w+8E/8bo8bECVudw8gECP58Vq5lxCCuy60Dl0wHQac+ArwbkMYd5yEf4cuyM7JHbvb5K0chSexytH9XBBdWPJcxQ154VbZPanqckp41UrrnYhWXN668wbB5E4cADWdQZe4zoV/dLZw30W+MgqKzsMqaAnb6+7e72EZKr9Hjx49evTo0aNHjx49evTo8StE0f8HNcHBz4Sa3fMAAAAASUVORK5CYII=;" parent="1" vertex="1">
          <mxGeometry x="230" y="170" width="554" height="352" as="geometry" />
        </mxCell>
        <mxCell id="batevEnSd1Nm34ywdQk7-2" value="&lt;font style=&quot;font-size: 20px;&quot;&gt;Features of Request 1&lt;/font&gt;" style="text;strokeColor=none;align=center;fillColor=default;html=1;verticalAlign=middle;whiteSpace=wrap;rounded=0;fontStyle=1" parent="1" vertex="1">
          <mxGeometry x="289" y="420" width="150" height="34" as="geometry" />
        </mxCell>
        <mxCell id="batevEnSd1Nm34ywdQk7-3" value="&lt;font style=&quot;font-size: 20px;&quot;&gt;Features of Request 2&lt;/font&gt;" style="text;strokeColor=none;align=center;fillColor=default;html=1;verticalAlign=middle;whiteSpace=wrap;rounded=0;fontStyle=1" parent="1" vertex="1">
          <mxGeometry x="483" y="420" width="150" height="34" as="geometry" />
        </mxCell>
        <mxCell id="batevEnSd1Nm34ywdQk7-4" value="&lt;font style=&quot;font-size: 20px;&quot;&gt;Features of Request n&lt;/font&gt;" style="text;strokeColor=none;align=center;fillColor=default;html=1;verticalAlign=middle;whiteSpace=wrap;rounded=0;fontStyle=1" parent="1" vertex="1">
          <mxGeometry x="644" y="420" width="150" height="34" as="geometry" />
        </mxCell>
        <mxCell id="batevEnSd1Nm34ywdQk7-5" value="&lt;font style=&quot;font-size: 18px;&quot;&gt;Features of Request 2&lt;/font&gt;" style="text;strokeColor=none;align=center;fillColor=default;html=1;verticalAlign=middle;whiteSpace=wrap;rounded=0;fontStyle=1" parent="1" vertex="1">
          <mxGeometry x="462.5" y="230" width="191" height="34" as="geometry" />
        </mxCell>
        <mxCell id="batevEnSd1Nm34ywdQk7-6" value="&lt;font style=&quot;font-size: 20px;&quot;&gt;Batch size&lt;/font&gt;" style="text;strokeColor=none;align=center;fillColor=default;html=1;verticalAlign=middle;whiteSpace=wrap;rounded=0;fontStyle=1" parent="1" vertex="1">
          <mxGeometry x="402" y="269" width="81" height="40" as="geometry" />
        </mxCell>
        <mxCell id="batevEnSd1Nm34ywdQk7-7" value="&lt;font style=&quot;font-size: 20px;&quot;&gt;Operator Features&lt;/font&gt;" style="text;strokeColor=none;align=center;fillColor=default;html=1;verticalAlign=middle;whiteSpace=wrap;rounded=0;fontStyle=1" parent="1" vertex="1">
          <mxGeometry x="500" y="267" width="170" height="40" as="geometry" />
        </mxCell>
      </root>
    </mxGraphModel>
  </diagram>
</mxfile>
